<svg xmlns="http://www.w3.org/2000/svg" width="64" height="64" viewBox="0 0 64 64" role="img" aria-labelledby="title">
  <title id="title">Viskit</title>
  <defs>
    <linearGradient id="v-blue" x1="14" y1="11" x2="50" y2="52" gradientUnits="userSpaceOnUse">
      <stop offset="0" stop-color="#66B4FF"/>
      <stop offset="0.52" stop-color="#216DFF"/>
      <stop offset="1" stop-color="#0B47E8"/>
    </linearGradient>
  </defs>
  <path
    d="M10 16c0-3.3 2.7-6 6-6h10.9c2.5 0 4.8 1.5 5.7 3.8L42 37.1 51.4 13.8c0.9-2.3 3.2-3.8 5.7-3.8H58c3.9 0 6.8 3.8 5.5 7.5L49.8 51.3A8.5 8.5 0 0 1 42 56H29a8.5 8.5 0 0 1-7.8-4.7L10.5 18.3A6 6 0 0 1 10 16Z"
    transform="scale(.9) translate(-3 0)"
    fill="url(#v-blue)"
  />
</svg>
